<svg width="16" height="16" viewBox="0 0 16 16" fill="none" xmlns="http://www.w3.org/2000/svg">
<path d="M13.5 4.5L10.5 1.50005V3.99996C10.5 4.2761 10.7239 4.49995 11 4.49996L13.5 4.5Z" fill="#619BFF"/>
<path d="M13.5 4.5L10.5 1.50005M13.5 4.5V14C13.5 14.2761 13.2761 14.5 13 14.5H3C2.72386 14.5 2.5 14.2761 2.5 14V2.00007C2.5 1.7239 2.72253 1.50003 2.9987 1.50006C4.97765 1.50023 8.91416 1.50012 10.5 1.50005M13.5 4.5L11 4.49996C10.7239 4.49995 10.5 4.2761 10.5 3.99996V1.50005" stroke="#619BFF"/>
<path d="M8.48047 12.5H8.5V7.5H8.48047L6.1875 9.5H5.5V10.5H6.1875L8.48047 12.5Z" fill="#619BFF"/>
<path d="M10 11.5C11 11.5 11.5 11 11.5 10C11.5 9 11 8.5 10 8.5M6.1875 10.5L8.48047 12.5H8.5V7.5H8.48047L6.1875 9.5H5.5V10.5H6.1875Z" stroke="#619BFF"/>
</svg>
