<svg width="16" height="16" viewBox="0 0 16 16" fill="none" xmlns="http://www.w3.org/2000/svg">
<path d="M14.5 6V5.70711C14.5 5.5745 14.4473 5.44732 14.3536 5.35355L10.6464 1.64645C10.5527 1.55268 10.4255 1.5 10.2929 1.5H10M14.5 6V14C14.5 14.2761 14.2761 14.5 14 14.5H2C1.72386 14.5 1.5 14.2761 1.5 14V2C1.5 1.72386 1.72386 1.5 2 1.5H10M14.5 6L10 1.5" stroke="#FF6B6B"/>
<path d="M8 11H9.5C9.77614 11 10 10.7761 10 10.5V9.5C10 9.22386 9.77614 9 9.5 9H8.5C8.22386 9 8 9.22386 8 9.5V11Z" fill="#FF6B6B"/>
<path d="M5 11V5.5C5 5.22386 4.77614 5 4.5 5H3.5C3.22386 5 3 5.22386 3 5.5V10.5C3 10.7761 3.22386 11 3.5 11H5Z" fill="#FF6B6B"/>
<path d="M7.5 13C7.77614 13 8 12.7761 8 12.5V11H5V12.5C5 12.7761 5.22386 13 5.5 13H7.5Z" fill="#FF6B6B"/>
</svg>
