<svg width="16" height="16" viewBox="0 0 16 16" fill="none" xmlns="http://www.w3.org/2000/svg">
<path d="M14.5 6V5.70711C14.5 5.5745 14.4473 5.44732 14.3536 5.35355L10.6464 1.64645C10.5527 1.55268 10.4255 1.5 10.2929 1.5H10M14.5 6V14C14.5 14.2761 14.2761 14.5 14 14.5H2C1.72386 14.5 1.5 14.2761 1.5 14V2C1.5 1.72386 1.72386 1.5 2 1.5H10M14.5 6L10 1.5" stroke="#619BFF"/>
<path d="M9 10.5H12M10.5 12V9" stroke="#619BFF"/>
<path d="M7.5 9C7.5 9 7.5 7.5 5.5 7.5C4 7.5 3.5 8.61929 3.5 10C3.5 11.3807 4 12.5 5.5 12.5C7.5 12.5 7.5 11 7.5 11" stroke="#619BFF"/>
</svg>
