<svg width="16" height="16" viewBox="0 0 16 16" fill="none" xmlns="http://www.w3.org/2000/svg">
<path d="M14.5 6V5.70711C14.5 5.5745 14.4473 5.44732 14.3536 5.35355L10.6464 1.64645C10.5527 1.55268 10.4255 1.5 10.2929 1.5H10M14.5 6V14C14.5 14.2761 14.2761 14.5 14 14.5H2C1.72386 14.5 1.5 14.2761 1.5 14V2C1.5 1.72386 1.72386 1.5 2 1.5H10M14.5 6L10 1.5" stroke="#619BFF"/>
<path d="M6 6.5H5C4.72386 6.5 4.5 6.72386 4.5 7V9.5M6 12.5H5C4.72386 12.5 4.5 12.2761 4.5 12L4.5 9.5M7 12.5H8C8.27614 12.5 8.5 12.2761 8.5 12L8.5 9.5M7 6.5H8C8.27614 6.5 8.5 6.72386 8.5 7L8.5 9.5M3 9.5H4.5M8.5 9.5H10" stroke="#619BFF"/>
</svg>
