<svg width="16" height="16" viewBox="0 0 16 16" fill="none" xmlns="http://www.w3.org/2000/svg">
<path fill-rule="evenodd" clip-rule="evenodd" d="M0.332231 8.7072L7.29296 15.6679C7.68348 16.0585 8.31665 16.0585 8.70717 15.6679L15.6679 8.7072C16.0584 8.31668 16.0584 7.68351 15.6679 7.29299L8.70717 0.33226C8.31664 -0.0582638 7.68348 -0.058263 7.29296 0.332261L5.91439 1.71083L8.04606 3.84249C8.18673 3.78745 8.33985 3.75724 8.50003 3.75724C9.1884 3.75724 9.74644 4.31527 9.74644 5.00364C9.74644 5.16382 9.71622 5.31694 9.66118 5.45762L11.0459 6.84238C11.1881 6.78617 11.3431 6.75528 11.5053 6.75528C12.1956 6.75528 12.7553 7.31493 12.7553 8.00528C12.7553 8.69564 12.1956 9.25528 11.5053 9.25528C10.8149 9.25528 10.2553 8.69564 10.2553 8.00528C10.2553 7.84503 10.2854 7.69183 10.3404 7.55103L9.00007 6.21072V10.104C9.44158 10.2969 9.75014 10.7374 9.75014 11.25C9.75014 11.9404 9.1905 12.5 8.50014 12.5C7.80979 12.5 7.25014 11.9404 7.25014 11.25C7.25014 10.7375 7.55863 10.297 8.00007 10.1041V6.14572C7.56061 5.95306 7.25363 5.5142 7.25363 5.00364C7.25363 4.84343 7.28386 4.69028 7.33892 4.54957L5.20728 2.41794L0.33223 7.29299C-0.0582944 7.68351 -0.0582935 8.31668 0.332231 8.7072Z" fill="#F39860"/>
</svg>
