<svg width="16" height="16" viewBox="0 0 16 16" fill="none" xmlns="http://www.w3.org/2000/svg">
<path d="M14.5 6V5.70711C14.5 5.5745 14.4473 5.44732 14.3536 5.35355L10.6464 1.64645C10.5527 1.55268 10.4255 1.5 10.2929 1.5H10M14.5 6V14C14.5 14.2761 14.2761 14.5 14 14.5H2C1.72386 14.5 1.5 14.2761 1.5 14V2C1.5 1.72386 1.72386 1.5 2 1.5H10M14.5 6L10 1.5" stroke="#F39860"/>
<path d="M5.5 12.5L5.17075 12.8763L5.31213 13H5.5V12.5ZM3.5 10.25L3.24806 9.81811L3 9.96281V10.25H3.5ZM6.5 8.5V8H6.36483L6.24806 8.06811L6.5 8.5ZM7.5 12.5L7.02566 12.3419L7 12.4189V12.5H7.5ZM9.5 6.5L9.97434 6.65811L10 6.58114V6.5H9.5ZM3.5 10.75H3V10.9769L3.17075 11.1263L3.5 10.75ZM3.75194 10.6819L6.75194 8.93189L6.24806 8.06811L3.24806 9.81811L3.75194 10.6819ZM7.97434 12.6581L9.97434 6.65811L9.02566 6.34189L7.02566 12.3419L7.97434 12.6581ZM10 6.5V6H9V6.5H10ZM7 12.5V13H8V12.5H7ZM5.5 13H6V12H5.5V13ZM6.5 9H7V8H6.5V9ZM5.82925 12.1237L3.82925 10.3737L3.17075 11.1263L5.17075 12.8763L5.82925 12.1237ZM4 10.75V10.25H3V10.75H4Z" fill="#F39860"/>
</svg>
