<svg width="16" height="16" viewBox="0 0 16 16" fill="none" xmlns="http://www.w3.org/2000/svg">
<path d="M13.5 4.5L10.5 1.50005V3.99996C10.5 4.2761 10.7239 4.49995 11 4.49996L13.5 4.5Z" fill="#619BFF"/>
<path d="M13.5 4.5L10.5 1.50005M13.5 4.5V14C13.5 14.2761 13.2761 14.5 13 14.5H3C2.72386 14.5 2.5 14.2761 2.5 14V2.00007C2.5 1.7239 2.72253 1.50003 2.9987 1.50006C4.97765 1.50023 8.91416 1.50012 10.5 1.50005M13.5 4.5L11 4.49996C10.7239 4.49995 10.5 4.2761 10.5 3.99996V1.50005" stroke="#619BFF"/>
<path d="M7.5 7.5C7.5 8.05228 7.05228 8.5 6.5 8.5C5.94772 8.5 5.5 8.05228 5.5 7.5C5.5 6.94772 5.94772 6.5 6.5 6.5C7.05228 6.5 7.5 6.94772 7.5 7.5Z" fill="#619BFF" stroke="#619BFF"/>
<path d="M4.5 14.5L9.97266 8.5H10.0273L13.5 11.5" stroke="#619BFF"/>
</svg>
