<svg width="16" height="16" viewBox="0 0 16 16" fill="none" xmlns="http://www.w3.org/2000/svg">
<path d="M3.49996 7.5V10C3.49996 11.5 4.99996 12.5 4.99996 12.5H6.99996C6.99996 12.5 7.55645 12.129 7.99153 11.5C8.27075 11.0963 8.49996 10.5864 8.49996 10V8.5V7.5H3.49996Z" fill="#FF6B81"/>
<path d="M8.49996 10C8.49996 9.41421 8.49996 8.5 8.49996 8.5M8.49996 10V8.5M8.49996 10C8.49996 10.5864 8.27075 11.0963 7.99153 11.5M3.49996 10C3.49996 9.41421 3.49996 7.5 3.49996 7.5M3.49996 10C3.49996 11.5 4.99996 12.5 4.99996 12.5H6.99996C6.99996 12.5 7.55645 12.129 7.99153 11.5M3.49996 10V7.5M3.49996 7.5H8.49996V8.5M8.49996 8.5H10.5C10.5 8.5 10.5 9.41421 10.5 10C10.5 11 9.49996 11.5 9.49996 11.5H7.99153" stroke="#FF6B81"/>
<path d="M14.5 6V5.70711C14.5 5.5745 14.4473 5.44732 14.3536 5.35355L10.6464 1.64645C10.5527 1.55268 10.4255 1.5 10.2929 1.5H10M14.5 6V14C14.5 14.2761 14.2761 14.5 14 14.5H2C1.72386 14.5 1.5 14.2761 1.5 14V2C1.5 1.72386 1.72386 1.5 2 1.5H10M14.5 6L10 1.5" stroke="#FF6B81"/>
</svg>
