<svg width="16" height="16" viewBox="0 0 16 16" fill="none" xmlns="http://www.w3.org/2000/svg">
<path d="M14.5 6V5.70711C14.5 5.5745 14.4473 5.44732 14.3536 5.35355L10.6464 1.64645C10.5527 1.55268 10.4255 1.5 10.2929 1.5H10M14.5 6V14C14.5 14.2761 14.2761 14.5 14 14.5H2C1.72386 14.5 1.5 14.2761 1.5 14V2C1.5 1.72386 1.72386 1.5 2 1.5H10M14.5 6L10 1.5" stroke="#DDB70E"/>
<path d="M5.50006 7C5.50006 7 5.50009 9.5 5.50009 11C5.50009 12.0781 4.79695 12.5 4.31257 12.5C3.42221 12.5 3.12061 11.9389 2.91748 11.1732M10.5001 9C10.5001 7.72864 9.48081 7.5 9.00009 7.5C8.11253 7.5 7.50013 8.00493 7.50008 8.68907C7.5 10 10.5001 10 10.5001 11.3109C10.5001 11.9951 9.88764 12.5 9.00009 12.5C8.51936 12.5 7.50008 12.2714 7.50008 11" stroke="#DDB70E"/>
</svg>
