<svg width="16" height="16" viewBox="0 0 16 16" fill="none" xmlns="http://www.w3.org/2000/svg">
<path d="M13.5 4.5L10.5 1.50005V3.99996C10.5 4.2761 10.7239 4.49995 11 4.49996L13.5 4.5Z" fill="#67C351"/>
<path d="M13.5 4.5L10.5 1.50005M13.5 4.5V14C13.5 14.2761 13.2761 14.5 13 14.5H3C2.72386 14.5 2.5 14.2761 2.5 14V2.00007C2.5 1.7239 2.72253 1.50003 2.9987 1.50006C4.97765 1.50023 8.91416 1.50012 10.5 1.50005M13.5 4.5L11 4.49996C10.7239 4.49995 10.5 4.2761 10.5 3.99996V1.50005" stroke="#67C351"/>
<path d="M9 12.5H10C10.2761 12.5 10.5 12.2761 10.5 12V9.5M9 6.5H10C10.2761 6.5 10.5 6.72386 10.5 7V9.5M10.5 9.5H12M8 12.5H7C6.72386 12.5 6.5 12.2761 6.5 12V9.5M8 6.5H7C6.72386 6.5 6.5 6.72386 6.5 7V9.5M5 9.5H6.5" stroke="#67C351"/>
</svg>
