<svg width="16" height="16" viewBox="0 0 16 16" fill="none" xmlns="http://www.w3.org/2000/svg">
<path d="M1.5 2C1.5 1.72386 1.72386 1.5 2 1.5H10.2929C10.4255 1.5 10.5527 1.55268 10.6464 1.64645L14.3536 5.35355C14.4473 5.44732 14.5 5.5745 14.5 5.70711V14C14.5 14.2761 14.2761 14.5 14 14.5H2C1.72386 14.5 1.5 14.2761 1.5 14V2Z" stroke="#619BFF"/>
<path d="M7 9L10.5 5.57812V5.5L8.5 5.5L3.5 10.5V12.5L7 9Z" fill="#619BFF"/>
<path d="M3.5 12.5H10.5V12.4219L7 9M3.5 12.5L7 9M3.5 12.5V10.5M7 9L10.5 5.57812V5.5L8.5 5.5M3.5 10.5V5.5L8.5 5.5M3.5 10.5L8.5 5.5" stroke="#619BFF"/>
</svg>
