<svg width="16" height="16" viewBox="0 0 16 16" fill="none" xmlns="http://www.w3.org/2000/svg">
<path fill-rule="evenodd" clip-rule="evenodd" d="M10 1V3.5C10 4.32843 10.6716 5 11.5 5H14V13.5C14 14.3284 13.3284 15 12.5 15H3.5C2.67157 15 2 14.3284 2 13.5V2.5C2 1.67157 2.67157 1 3.5 1H10ZM11 1.31079V3.5C11 3.77614 11.2239 4 11.5 4H13.6892C13.6498 3.94873 13.6069 3.89979 13.5607 3.85355L11.1464 1.43934C11.1002 1.39311 11.0513 1.3502 11 1.31079ZM5.27639 8.55279L7 7.69098V7H8V7.69098L9.72361 8.55279L10 8.69098V9V10H11V11H9.5H9V10.5V9.30902L8 8.80902V12H9V13H7.5H6V12H7V8.80902L6 9.30902V10.5V11H5.5H4V10H5V9V8.69098L5.27639 8.55279Z" fill="#3AC39E"/>
</svg>
