<svg width="16" height="16" viewBox="0 0 16 16" fill="none" xmlns="http://www.w3.org/2000/svg">
<path fill-rule="evenodd" clip-rule="evenodd" d="M10 1V4C10 4.55228 10.4477 5 11 5H14V14C14 14.5523 13.5523 15 13 15H3C2.44772 15 2 14.5523 2 14V2C2 1.44772 2.44772 1 3 1H10ZM11 1.08982V4H13.9102C13.861 3.89201 13.7926 3.79261 13.7071 3.70711L11.2929 1.29289C11.2074 1.20739 11.108 1.13896 11 1.08982ZM5.27639 8.55279L7 7.69098V7H8V7.69098L9.72361 8.55279L10 8.69098V9V10H11V11H9.5H9V10.5V9.30902L8 8.80902V12H9V13H7.5H6V12H7V8.80902L6 9.30902V10.5V11H5.5H4V10H5V9V8.69098L5.27639 8.55279Z" fill="#3AC39E"/>
</svg>
