<svg width="16" height="16" viewBox="0 0 16 16" fill="none" xmlns="http://www.w3.org/2000/svg">
<path d="M13 14.5H3C2.72386 14.5 2.5 14.2761 2.5 14V2C2.5 1.72386 2.72386 1.5 3 1.5H10.2929C10.4255 1.5 10.5527 1.55268 10.6464 1.64645L13.3536 4.35355C13.4473 4.44732 13.5 4.5745 13.5 4.70711V14C13.5 14.2761 13.2761 14.5 13 14.5Z" stroke="#67C351"/>
<path d="M9.5 1.5V5C9.5 5.27614 9.72386 5.5 10 5.5H13.5" stroke="#67C351"/>
<path d="M10.5 12.5078L11.5 11.5078V11.5H10.5H9.5V11.5078L10.5 12.5078Z" fill="#67C351"/>
<path d="M4.5 13V8.5H4.64062L5.96875 10.5H6.05469L7.40625 8.5H7.5V13M10.5 8V11.5M10.5 11.5H11.5V11.5078L10.5 12.5078L9.5 11.5078V11.5H10.5Z" stroke="#67C351"/>
</svg>
