<svg width="16" height="16" viewBox="0 0 16 16" fill="none" xmlns="http://www.w3.org/2000/svg">
<path d="M6.5 9C6.5 9.27614 6.72386 9.5 7 9.5H9C9.27614 9.5 9.5 9.27614 9.5 9V7C9.5 6.72386 9.27614 6.5 9 6.5H7C6.72386 6.5 6.5 6.72386 6.5 7V9Z" fill="#DDB70E"/>
<path d="M6.5 4C6.5 4.27614 6.72386 4.5 7 4.5H9C9.27614 4.5 9.5 4.27614 9.5 4V2C9.5 1.72386 9.27614 1.5 9 1.5H7C6.72386 1.5 6.5 1.72386 6.5 2V4Z" fill="#DDB70E"/>
<path d="M11.5 4C11.5 4.27614 11.7239 4.5 12 4.5H14C14.2761 4.5 14.5 4.27614 14.5 4V2C14.5 1.72386 14.2761 1.5 14 1.5H12C11.7239 1.5 11.5 1.72386 11.5 2V4Z" fill="#DDB70E"/>
<path d="M1.5 4C1.5 4.27614 1.72386 4.5 2 4.5H4C4.27614 4.5 4.5 4.27614 4.5 4V2C4.5 1.72386 4.27614 1.5 4 1.5H2C1.72386 1.5 1.5 1.72386 1.5 2V4Z" fill="#DDB70E"/>
<path d="M6.5 9C6.5 9.27614 6.72386 9.5 7 9.5H9C9.27614 9.5 9.5 9.27614 9.5 9V7C9.5 6.72386 9.27614 6.5 9 6.5H7C6.72386 6.5 6.5 6.72386 6.5 7V9Z" stroke="#DDB70E"/>
<path d="M6.5 4C6.5 4.27614 6.72386 4.5 7 4.5H9C9.27614 4.5 9.5 4.27614 9.5 4V2C9.5 1.72386 9.27614 1.5 9 1.5H7C6.72386 1.5 6.5 1.72386 6.5 2V4Z" stroke="#DDB70E"/>
<path d="M11.5 4C11.5 4.27614 11.7239 4.5 12 4.5H14C14.2761 4.5 14.5 4.27614 14.5 4V2C14.5 1.72386 14.2761 1.5 14 1.5H12C11.7239 1.5 11.5 1.72386 11.5 2V4Z" stroke="#DDB70E"/>
<path d="M1.5 4C1.5 4.27614 1.72386 4.5 2 4.5H4C4.27614 4.5 4.5 4.27614 4.5 4V2C4.5 1.72386 4.27614 1.5 4 1.5H2C1.72386 1.5 1.5 1.72386 1.5 2V4Z" stroke="#DDB70E"/>
<path d="M4 11.5H2C1.72386 11.5 1.5 11.7239 1.5 12V14C1.5 14.2761 1.72386 14.5 2 14.5H4C4.27614 14.5 4.5 14.2761 4.5 14V12C4.5 11.7239 4.27614 11.5 4 11.5Z" stroke="#DDB70E"/>
<path d="M6.5 14V12C6.5 11.7239 6.72386 11.5 7 11.5H9C9.27614 11.5 9.5 11.7239 9.5 12V14C9.5 14.2761 9.27614 14.5 9 14.5H7C6.72386 14.5 6.5 14.2761 6.5 14Z" stroke="#DDB70E"/>
<path d="M14 9.5H12C11.7239 9.5 11.5 9.27614 11.5 9V7C11.5 6.72386 11.7239 6.5 12 6.5H14C14.2761 6.5 14.5 6.72386 14.5 7V9C14.5 9.27614 14.2761 9.5 14 9.5Z" stroke="#DDB70E"/>
<path d="M11.5 14V12C11.5 11.7239 11.7239 11.5 12 11.5H14C14.2761 11.5 14.5 11.7239 14.5 12V14C14.5 14.2761 14.2761 14.5 14 14.5H12C11.7239 14.5 11.5 14.2761 11.5 14Z" stroke="#DDB70E"/>
</svg>
