<svg width="16" height="16" viewBox="0 0 16 16" fill="none" xmlns="http://www.w3.org/2000/svg">
<path d="M10.5 8.5L9.5 6.5H7.5L8 8.5H10.5Z" fill="#FF6B6B"/>
<path d="M10.5 8.5L9.5 6.5H7.5M10.5 8.5L7 12.5L3.5 8.5L4.5 6.5H7.5M10.5 8.5H8L7.5 6.5" stroke="#FF6B6B"/>
<path d="M1.5 2C1.5 1.72386 1.72386 1.5 2 1.5H10.2929C10.4255 1.5 10.5527 1.55268 10.6464 1.64645L14.3536 5.35355C14.4473 5.44732 14.5 5.5745 14.5 5.70711V14C14.5 14.2761 14.2761 14.5 14 14.5H2C1.72386 14.5 1.5 14.2761 1.5 14V2Z" stroke="#FF6B6B"/>
</svg>
