<svg width="16" height="16" viewBox="0 0 16 16" fill="none" xmlns="http://www.w3.org/2000/svg">
<path fill-rule="evenodd" clip-rule="evenodd" d="M10 1V3.5C10 4.32843 10.6716 5 11.5 5H14V13.5C14 14.3284 13.3284 15 12.5 15H3.5C2.67157 15 2 14.3284 2 13.5V2.5C2 1.67157 2.67157 1 3.5 1H10ZM11 1.31079V3.5C11 3.77614 11.2239 4 11.5 4H13.6892C13.6498 3.94873 13.6069 3.89979 13.5607 3.85355L11.1464 1.43934C11.1002 1.39311 11.0513 1.3502 11 1.31079ZM4 6H8V5H4V6ZM12 9V8H4V9H12ZM12 11V10H4V11H12ZM4 13H10V12H4V13Z" fill="#3AC39E"/>
</svg>
