<svg width="16" height="16" viewBox="0 0 16 16" fill="none" xmlns="http://www.w3.org/2000/svg">
<path fill-rule="evenodd" clip-rule="evenodd" d="M10 1V3.5C10 4.32843 10.6716 5 11.5 5H14V14C14 14.5523 13.5523 15 13 15H3C2.44772 15 2 14.5523 2 14V2C2 1.44772 2.44772 1 3 1H10ZM11 1.08982V3.5C11 3.77614 11.2239 4 11.5 4H13.9102C13.861 3.89201 13.7926 3.79261 13.7071 3.70711L11.2929 1.29289C11.2074 1.20739 11.108 1.13896 11 1.08982ZM4 6H8V5H4V6ZM12 9V8H4V9H12ZM12 11V10H4V11H12ZM4 13H10V12H4V13Z" fill="#3AC39E"/>
</svg>
