<svg width="16" height="16" viewBox="0 0 16 16" fill="none" xmlns="http://www.w3.org/2000/svg">
<path fill-rule="evenodd" clip-rule="evenodd" d="M8.86102 1.23515C8.05969 1.43481 7.41272 2.03417 6.96598 3.18142C6.55958 4.22509 6.86151 5.1607 7.45495 5.86541C8.07 6.59579 8.93347 6.99993 9.50006 6.99993H10.0001V7.76286L2.70975 15H14V13.8939L12.132 9.6909C12.34 9.54084 12.6069 9.31989 12.8737 9.01968C13.4376 8.38529 14 7.3964 14 6C14 4.34483 13.3034 3.07739 12.2498 2.23457C11.6376 1.74478 10.9129 1.40403 10.1465 1.20646C9.65859 1.12943 9.2312 1.14291 8.86102 1.23515ZM7.22757 1C6.72484 1.44772 6.32854 2.06253 6.03414 2.81856L6.03248 2.82283C5.91535 3.12414 5.47459 4.30963 4.90195 5.84988L4.90031 5.85427C4.65221 6.5216 4.3792 7.2559 4.09728 8.01307C3.37355 9.95682 2.58834 12.0586 2 13.605V1H7.22757Z" fill="#FF6B81"/>
</svg>
