<svg width="16" height="16" viewBox="0 0 16 16" fill="none" xmlns="http://www.w3.org/2000/svg">
<path d="M14.5 6V5.70711C14.5 5.5745 14.4473 5.44732 14.3536 5.35355L10.6464 1.64645C10.5527 1.55268 10.4255 1.5 10.2929 1.5H10M14.5 6V14C14.5 14.2761 14.2761 14.5 14 14.5H2C1.72386 14.5 1.5 14.2761 1.5 14V2C1.5 1.72386 1.72386 1.5 2 1.5H10M14.5 6L10 1.5" stroke="#FF6B6B"/>
<path d="M3 12.5H4.5M7 12.5H5.5M4.5 12.5V9.5M4.5 12.5H5.5M4.5 6.5H3M4.5 6.5V9.5M4.5 6.5H5.5M6 9.5C5.21895 9.5 4.5 9.5 4.5 9.5M6 9.5C8 9.5 8.5 9 8.5 8C8.5 7.10938 8 6.5 6.5 6.5H5.5M6 9.5C8 9.5 8.5 11 8.5 12V12.5H11M5.5 12.5V6.5M6 6.5H7.5C9 6.5 9.5 7.10938 9.5 8C9.5 9 9 9.5 7 9.5C9 9.5 9.5 11 9.5 12" stroke="#FF6B6B"/>
</svg>
