<svg width="16" height="16" viewBox="0 0 16 16" fill="none" xmlns="http://www.w3.org/2000/svg">
<path d="M14.5 6V5.70711C14.5 5.5745 14.4473 5.44732 14.3536 5.35355L10.6464 1.64645C10.5527 1.55268 10.4255 1.5 10.2929 1.5H10M14.5 6V14C14.5 14.2761 14.2761 14.5 14 14.5H2C1.72386 14.5 1.5 14.2761 1.5 14V2C1.5 1.72386 1.72386 1.5 2 1.5H10M14.5 6L10 1.5" stroke="#FF6B81"/>
<path d="M8 8.5C8.5 8.5 9.5 8 9.5 7C9.5 5 4.5 5 4.5 7C4.5 8.67295 6.5 8.5 6.5 11C6.5 13 3.5 13 3.5 11.5C3.5 9.71875 8.5 10.5 8.5 12" stroke="#FF6B81"/>
</svg>
