<svg width="16" height="16" viewBox="0 0 16 16" fill="none" xmlns="http://www.w3.org/2000/svg">
<path d="M2 11C1 11 0 12 0 12C0 9.99998 1 7.99994 3.5 7.99994C6 7.99994 7 11 10 11C11 11 12 9.99998 12 9.99998C12 12 11 13.9999 8.5 13.9999C6 13.9999 4.5 11 2 11Z" fill="#3AC39E"/>
<path d="M6 5.00005C5 5.00003 4 6.00005 4 6.00005C4 4.00004 5 2.00001 7.5 2.00001C10 2.00001 11 5.00004 14 5.00004C15 5.00004 16 4.00005 16 4.00005C16 6.00005 15 8 12.5 8C10 8 8.5 5.0001 6 5.00005Z" fill="#3AC39E"/>
</svg>
