<svg width="16" height="16" viewBox="0 0 16 16" fill="none" xmlns="http://www.w3.org/2000/svg">
<path d="M14.5 6V5.70711C14.5 5.5745 14.4473 5.44732 14.3536 5.35355L10.6464 1.64645C10.5527 1.55268 10.4255 1.5 10.2929 1.5H10M14.5 6V14C14.5 14.2761 14.2761 14.5 14 14.5H2C1.72386 14.5 1.5 14.2761 1.5 14V2C1.5 1.72386 1.72386 1.5 2 1.5H10M14.5 6L10 1.5" stroke="#619BFF"/>
<path d="M4.5 7.5V13M4.5 7.5H3M4.5 7.5H6.5M10.5 9C10.5 7.72864 9.48071 7.5 8.99999 7.5C8.11243 7.5 7.49999 8.00493 7.49999 8.68907C7.49999 10 10.5 10 10.5 11.3109C10.5 11.9951 9.88755 12.5 8.99999 12.5C8.51927 12.5 7.49999 12.2714 7.49999 11" stroke="#619BFF"/>
</svg>
