<svg width="16" height="16" viewBox="0 0 16 16" fill="none" xmlns="http://www.w3.org/2000/svg">
<path d="M11.5 3.5H14C14.2761 3.5 14.5 3.72386 14.5 4V4.3725C14.5 4.45616 14.479 4.53848 14.4389 4.61193L8.64213 15.2394C8.55451 15.4001 8.38616 15.5 8.20318 15.5H7.79682C7.61384 15.5 7.44549 15.4001 7.35787 15.2394L1.56105 4.61193C1.52099 4.53848 1.5 4.45616 1.5 4.3725V4C1.5 3.72386 1.72386 3.5 2 3.5H3.5" stroke="#DDB70E"/>
<path d="M10 5H12V6L8.5 13H7.5L8 10H6L6.5 7H4L5 0H11L10 5Z" fill="#DDB70E"/>
</svg>
