<svg width="16" height="16" viewBox="0 0 16 16" fill="none" xmlns="http://www.w3.org/2000/svg">
<path d="M7.5 2.5L9.5 4.5H14C14.2761 4.5 14.5 4.72386 14.5 5V13C14.5 13.2761 14.2761 13.5 14 13.5H2C1.72386 13.5 1.5 13.2761 1.5 13V3C1.5 2.72386 1.72386 2.5 2 2.5H7.5Z" fill="#619BFF" stroke="#619BFF"/>
<path d="M12.5 11.5V6.5H11.5V11.5H12.5Z" fill="#1F2428"/>
<path d="M6.33218 7.1263L5.95848 6.79411L5.29411 7.54152L5.66782 7.8737L6.33218 7.1263ZM10.5 11.5L10.1678 11.8737L10.3099 12H10.5V11.5ZM12.5 11.5V12H13V11.5H12.5ZM12.5 6.5H13V6H12.5V6.5ZM10.5 6.5V6H10.2929L10.1464 6.14645L10.5 6.5ZM5.64645 10.6464L5.29289 11L6 11.7071L6.35355 11.3536L5.64645 10.6464ZM7.64645 8.64645L7.29289 9L8 9.70711L8.35355 9.35355L7.64645 8.64645ZM5.66782 7.8737L10.1678 11.8737L10.8322 11.1263L6.33218 7.1263L5.66782 7.8737ZM13 11.5V6.5H12V11.5H13ZM10.1464 6.14645L7.64645 8.64645L8.35355 9.35355L10.8536 6.85355L10.1464 6.14645ZM6.64645 9.64645L5.64645 10.6464L6.35355 11.3536L7.35355 10.3536L6.64645 9.64645ZM10.5 12H11.5V11H10.5V12ZM11.5 12H12.5V11H11.5V12ZM12.5 6H11.5V7H12.5V6ZM11.5 6H10.5V7H11.5V6ZM12 11.5V6.5H11V11.5H12Z" fill="#1F2428"/>
</svg>
