<svg width="16" height="16" viewBox="0 0 16 16" fill="none" xmlns="http://www.w3.org/2000/svg">
<path d="M5.5 5.5L7 8L8.5 5.5H5.5Z" fill="#3AC39E"/>
<path d="M5.5 5.5H3.5V7L6.5 12.5H7.5L10.5 7V5.5H8.5M5.5 5.5L7 8L8.5 5.5M5.5 5.5H8.5" stroke="#3AC39E"/>
<path d="M1.5 2C1.5 1.72386 1.72386 1.5 2 1.5H10.2929C10.4255 1.5 10.5527 1.55268 10.6464 1.64645L14.3536 5.35355C14.4473 5.44732 14.5 5.5745 14.5 5.70711V14C14.5 14.2761 14.2761 14.5 14 14.5H2C1.72386 14.5 1.5 14.2761 1.5 14V2Z" stroke="#3AC39E"/>
</svg>
