<svg width="16" height="16" viewBox="0 0 16 16" fill="none" xmlns="http://www.w3.org/2000/svg">
<path d="M13.5 4.5L10.5 1.50005V3.99996C10.5 4.2761 10.7239 4.49995 11 4.49996L13.5 4.5Z" fill="#67C351"/>
<path d="M13.5 4.5L10.5 1.50005M13.5 4.5V14C13.5 14.2761 13.2761 14.5 13 14.5H3C2.72386 14.5 2.5 14.2761 2.5 14V2.00007C2.5 1.7239 2.72253 1.50003 2.9987 1.50006C4.97765 1.50023 8.91416 1.50012 10.5 1.50005M13.5 4.5L11 4.49996C10.7239 4.49995 10.5 4.2761 10.5 3.99996V1.50005" stroke="#67C351"/>
<path d="M7.5 12.5L7.17075 12.8763L7.31213 13H7.5V12.5ZM5.5 10.25L5.24806 9.81811L5 9.96281V10.25H5.5ZM8.5 8.5V8H8.36483L8.24806 8.06811L8.5 8.5ZM9.5 12.5L9.02566 12.3419L9 12.4189V12.5H9.5ZM11.5 6.5L11.9743 6.65811L12 6.58114V6.5H11.5ZM5.5 10.75H5V10.9769L5.17075 11.1263L5.5 10.75ZM5.75194 10.6819L8.75194 8.93189L8.24806 8.06811L5.24806 9.81811L5.75194 10.6819ZM9.97434 12.6581L11.9743 6.65811L11.0257 6.34189L9.02566 12.3419L9.97434 12.6581ZM12 6.5V6H11V6.5H12ZM9 12.5V13H10V12.5H9ZM7.5 13H8V12H7.5V13ZM8.5 9H9V8H8.5V9ZM7.82925 12.1237L5.82925 10.3737L5.17075 11.1263L7.17075 12.8763L7.82925 12.1237ZM6 10.75V10.25H5V10.75H6Z" fill="#67C351"/>
</svg>
