<svg width="16" height="16" viewBox="0 0 16 16" fill="none" xmlns="http://www.w3.org/2000/svg">
<path d="M14.5 6V5.70711C14.5 5.5745 14.4473 5.44732 14.3536 5.35355L10.6464 1.64645C10.5527 1.55268 10.4255 1.5 10.2929 1.5H10M14.5 6V14C14.5 14.2761 14.2761 14.5 14 14.5H2C1.72386 14.5 1.5 14.2761 1.5 14V2C1.5 1.72386 1.72386 1.5 2 1.5H10M14.5 6L10 1.5" stroke="#67C351"/>
<path d="M6.5 12.5L6.75194 12.9319L6.63517 13H6.5V12.5ZM9.5 10.25L9.78673 9.84038L10 9.98967V10.25H9.5ZM7 8.5V8H7.15761L7.28673 8.09038L7 8.5ZM3.5 12.5H3V12.4189L3.02566 12.3419L3.5 12.5ZM5.5 6.5H6V6.58114L5.97434 6.65811L5.5 6.5ZM9.5 10.75H10V11.0372L9.75194 11.1819L9.5 10.75ZM9.21327 10.6596L6.71327 8.90962L7.28673 8.09038L9.78673 9.84038L9.21327 10.6596ZM3.02566 12.3419L5.02566 6.34189L5.97434 6.65811L3.97434 12.6581L3.02566 12.3419ZM5 6.5V6H6V6.5H5ZM4 12.5V13H3V12.5H4ZM6.5 13H6V12H6.5V13ZM7 9H6.5V8H7V9ZM6.24806 12.0681L9.24806 10.3181L9.75194 11.1819L6.75194 12.9319L6.24806 12.0681ZM9 10.75V10.25H10V10.75H9Z" fill="#67C351"/>
</svg>
