<svg width="16" height="16" viewBox="0 0 16 16" fill="none" xmlns="http://www.w3.org/2000/svg">
<path d="M13 14.5H3C2.72386 14.5 2.5 14.2761 2.5 14V2C2.5 1.72386 2.72386 1.5 3 1.5H10.2929C10.4255 1.5 10.5527 1.55268 10.6464 1.64645L13.3536 4.35355C13.4473 4.44732 13.5 4.5745 13.5 4.70711V14C13.5 14.2761 13.2761 14.5 13 14.5Z" stroke="#67C351"/>
<path d="M9.5 1.5V5C9.5 5.27614 9.72386 5.5 10 5.5H13.5" stroke="#67C351"/>
<path d="M9.5 11V13M9.5 11L7.5 8V7M9.5 11L11.5 8V7" stroke="#67C351"/>
</svg>
