<svg width="16" height="16" viewBox="0 0 16 16" fill="none" xmlns="http://www.w3.org/2000/svg">
<path d="M7.5 2.5L9.5 4.5H14C14.2761 4.5 14.5 4.72386 14.5 5V13C14.5 13.2761 14.2761 13.5 14 13.5H2C1.72386 13.5 1.5 13.2761 1.5 13V3C1.5 2.72386 1.72386 2.5 2 2.5H7.5Z" fill="#8693A2" stroke="#8693A2"/>
<path d="M13 10.7143C13 10.2857 12.5714 10.2857 12.5714 10.2857C12.0505 10.2857 11.7143 10.7143 11.2857 10.9286C11.2857 10.3713 11.0714 9 10.4286 8.60491C10.6429 7.92857 10.8571 8.14286 10.8571 7.5C10.8571 6.85714 10.4286 6.42857 10 6H9.57143V6.42857C8.88571 6.42857 8.28571 6.85714 8.28571 7.28571C7.81233 7.28571 7.37185 7.68544 7.51987 8.13509C7.63567 8.48689 7.8719 8.58336 8.28571 8.60491C7.85714 8.78571 7.42857 9.21429 7.42857 10.0714C7.21429 10.2857 7 10.3929 7 10.9286C7 11.1551 7 11.3571 7.42857 11.5714C7.42857 11.5714 7.42857 12 7.85714 12C8.35268 12 8.5 12 8.71429 11.5714C8.71429 11.8247 9.14286 12 9.57143 12L11.0714 12C11.5857 12 11.9286 11.3571 12.5714 11.1429C12.5714 11.1429 13 11.1429 13 10.7143Z" fill="#1F2428"/>
</svg>
