<svg width="16" height="16" viewBox="0 0 16 16" fill="none" xmlns="http://www.w3.org/2000/svg">
<path d="M16 12C16 11 15 11 15 11C13.7845 11 13 12 12 12.5C12 11.1996 11.5 8 10 7.07813C10.5 5.5 11 6 11 4.5C11 3 10 2 9 1H8V2C6.4 2 5 3 5 4H4C3.44772 4 2.98964 4.44946 3.03581 4.99981C3.17351 6.64118 3.72616 7.01178 5 7.07813C4 7.5 3 8.5 3 10.5C2.5 11 2 11.25 2 12.5C2 13.0285 2 13.5 3 14C3 14 3 15 4 15C5.15625 15 5.5 15 6 14C6 14.5909 7 15 8 15L11.5 15C12.7 15 13.5 13.5 15 13C15 13 16 13 16 12Z" fill="#619BFF"/>
</svg>
