<svg width="16" height="16" viewBox="0 0 16 16" fill="none" xmlns="http://www.w3.org/2000/svg">
<path fill-rule="evenodd" clip-rule="evenodd" d="M2 1C1.44772 1 1 1.44772 1 2V14C1 14.5523 1.44772 15 2 15H14C14.5523 15 15 14.5523 15 14V2C15 1.44772 14.5523 1 14 1H2ZM7.05001 9H6V10H7.05001C7.1148 10.3192 7.2404 10.6163 7.4142 10.8787L6.64645 11.6464L7.35355 12.3536L8.12131 11.5858C8.38371 11.7596 8.68081 11.8852 9 11.95V13H10V11.95C10.3192 11.8852 10.6163 11.7596 10.8787 11.5858L11.6464 12.3536L12.3536 11.6464L11.5858 10.8787C11.7596 10.6163 11.8852 10.3192 11.95 10H13V9H11.95C11.8852 8.68081 11.7596 8.38371 11.5858 8.12131L12.3536 7.35355L11.6464 6.64645L10.8787 7.4142C10.6163 7.2404 10.3192 7.1148 10 7.05001V6H9V7.05001C8.68081 7.1148 8.38371 7.2404 8.12131 7.4142L7.35355 6.64645L6.64645 7.35355L7.4142 8.12131C7.2404 8.38371 7.1148 8.68081 7.05001 9ZM11 9.5C11 10.3284 10.3284 11 9.5 11C8.67157 11 8 10.3284 8 9.5C8 8.67157 8.67157 8 9.5 8C10.3284 8 11 8.67157 11 9.5Z" fill="#67C351"/>
</svg>
