<svg width="16" height="16" viewBox="0 0 16 16" fill="none" xmlns="http://www.w3.org/2000/svg">
<path fill-rule="evenodd" clip-rule="evenodd" d="M2 1C1.44772 1 1 1.44772 1 2V14C1 14.5523 1.44772 15 2 15H14C14.5523 15 15 14.5523 15 14V2C15 1.44772 14.5523 1 14 1H2ZM6.5 7H4.5V8H6V13H7V8H8.5V7H6.5ZM9.99999 8.68907C9.99999 8.37845 10.2799 8 11 8C11.1793 8 11.4435 8.04563 11.6474 8.18552C11.8206 8.30442 12 8.52205 12 9H13C13 8.20659 12.6697 7.67422 12.2132 7.36096C11.7872 7.06869 11.3014 7 11 7C9.94496 7 8.99999 7.63141 8.99999 8.68907C8.99999 8.99234 9.06099 9.26444 9.18795 9.50193C9.31506 9.73968 9.49374 9.91556 9.68904 10.0474C10.0461 10.2883 10.4977 10.4023 10.8467 10.4904L10.8774 10.4982C11.277 10.5992 11.5599 10.6754 11.7561 10.8047C11.8424 10.8615 11.8968 10.9202 11.9323 10.9853C11.9679 11.0504 12 11.1498 12 11.3109C12 11.6216 11.7201 12 11 12C10.8207 12 10.5565 11.9544 10.3526 11.8145C10.1793 11.6956 9.99999 11.4779 9.99999 11H8.99999C8.99999 11.7934 9.33029 12.3258 9.78683 12.639C10.2128 12.9313 10.6986 13 11 13C12.055 13 13 12.3686 13 11.3109C13 11.0106 12.9383 10.7409 12.8098 10.5057C12.6813 10.2707 12.5014 10.0982 12.3063 9.96971C11.9556 9.73856 11.5123 9.62689 11.1676 9.54004L11.1225 9.52866C10.7254 9.42828 10.4433 9.34994 10.2484 9.21845C10.1625 9.16045 10.1068 9.09958 10.0698 9.03046C10.0327 8.96107 9.99999 8.85615 9.99999 8.68907Z" fill="#619BFF"/>
</svg>
