<svg width="16" height="16" viewBox="0 0 16 16" fill="none" xmlns="http://www.w3.org/2000/svg">
<path d="M3.49995 7.5V10C3.49995 11.5 4.99995 12.5 4.99995 12.5H6.99995C6.99995 12.5 7.55645 12.129 7.99152 11.5C8.27074 11.0963 8.49995 10.5864 8.49995 10V8.5V7.5H3.49995Z" fill="#FF6B6B"/>
<path d="M8.49995 10C8.49995 9.41421 8.49995 8.5 8.49995 8.5M8.49995 10V8.5M8.49995 10C8.49995 10.5864 8.27074 11.0963 7.99152 11.5M3.49995 10C3.49995 9.41421 3.49995 7.5 3.49995 7.5M3.49995 10C3.49995 11.5 4.99995 12.5 4.99995 12.5H6.99995C6.99995 12.5 7.55645 12.129 7.99152 11.5M3.49995 10V7.5M3.49995 7.5H8.49995V8.5M8.49995 8.5H10.5C10.5 8.5 10.5 9.41421 10.5 10C10.5 11 9.49995 11.5 9.49995 11.5H7.99152" stroke="#FF6B6B"/>
<path d="M1.5 2C1.5 1.72386 1.72386 1.5 2 1.5H10.2929C10.4255 1.5 10.5527 1.55268 10.6464 1.64645L14.3536 5.35355C14.4473 5.44732 14.5 5.5745 14.5 5.70711V14C14.5 14.2761 14.2761 14.5 14 14.5H2C1.72386 14.5 1.5 14.2761 1.5 14V2Z" stroke="#FF6B6B"/>
</svg>
