<svg width="16" height="16" viewBox="0 0 16 16" fill="none" xmlns="http://www.w3.org/2000/svg">
<path fill-rule="evenodd" clip-rule="evenodd" d="M8.99997 11H9.99997C11.4368 11 11.4368 7.00005 10 7V7.6802C10 8.39522 9.49531 9.01084 8.79417 9.15107L5.40194 9.82951C5.16823 9.87626 5 10.0815 5 10.3198V11V12H4.99997C4.99997 12 4.99997 13 6.99997 13C8.99997 13 8.99997 12 8.99997 12V11ZM4 11V10.3198C4 9.60478 4.50469 8.98916 5.20583 8.84893L8.59806 8.17049C8.83177 8.12374 9 7.91854 9 7.6802V7H8.99997V6C8.99997 6 8.99997 5 6.99997 5C4.99997 5 4.99997 6 4.99997 6V7H3.99997C2.56316 7 2.56316 11 3.99997 11H4ZM5.99997 7V6H6.99997V7H5.99997ZM7.99997 12H6.99997V11H7.99997V12Z" fill="#DDB70E"/>
<path d="M1.5 2C1.5 1.72386 1.72386 1.5 2 1.5H10.2929C10.4255 1.5 10.5527 1.55268 10.6464 1.64645L14.3536 5.35355C14.4473 5.44732 14.5 5.5745 14.5 5.70711V14C14.5 14.2761 14.2761 14.5 14 14.5H2C1.72386 14.5 1.5 14.2761 1.5 14V2Z" stroke="#DDB70E"/>
</svg>
