<svg width="16" height="16" viewBox="0 0 16 16" fill="none" xmlns="http://www.w3.org/2000/svg">
<path d="M3 12.5H4.5M6 12.5H4.5M4.5 12.5V9.5M4.5 6.5H3M4.5 6.5H6.5C8 6.5 8.5 7.5 8.5 8C8.5 8.5 8 9.5 6 9.5M4.5 6.5V9.5M6 9.5C5.21895 9.5 4.5 9.5 4.5 9.5M6 9.5C7.35284 9.5 8.5 11 8.5 12V12.5H10" stroke="#FF6B6B"/>
<path d="M1.5 2C1.5 1.72386 1.72386 1.5 2 1.5H10.2929C10.4255 1.5 10.5527 1.55268 10.6464 1.64645L14.3536 5.35355C14.4473 5.44732 14.5 5.5745 14.5 5.70711V14C14.5 14.2761 14.2761 14.5 14 14.5H2C1.72386 14.5 1.5 14.2761 1.5 14V2Z" stroke="#FF6B6B"/>
</svg>
