<svg width="16" height="16" viewBox="0 0 16 16" fill="none" xmlns="http://www.w3.org/2000/svg">
<path d="M9.5 4.5L7.5 2.5H2C1.72386 2.5 1.5 2.72371 1.5 2.99985C1.5 3.42528 1.5 4.03894 1.5 4.5C4.62419 4.5 9.5 4.5 9.5 4.5Z" fill="#3AC39E"/>
<path d="M9.5 4.5L7.5 2.5H2C1.72386 2.5 1.5 2.72371 1.5 2.99985C1.5 3.42528 1.5 4.03894 1.5 4.5M9.5 4.5H14C14.2761 4.5 14.5 4.72386 14.5 5V13C14.5 13.2761 14.2761 13.5 14 13.5H2C1.72386 13.5 1.5 13.278 1.5 13.0019C1.5 11.5726 1.5 7.37638 1.5 4.5M9.5 4.5C9.5 4.5 4.62419 4.5 1.5 4.5" stroke="#3AC39E"/>
</svg>
