<svg width="16" height="16" viewBox="0 0 16 16" fill="none" xmlns="http://www.w3.org/2000/svg">
<path d="M7.5 2.5L9.5 4.5H14C14.2761 4.5 14.5 4.72386 14.5 5V13C14.5 13.2761 14.2761 13.5 14 13.5H2C1.72386 13.5 1.5 13.2761 1.5 13V3C1.5 2.72386 1.72386 2.5 2 2.5H7.5Z" fill="#DDB70E" stroke="#DDB70E"/>
<path d="M10.5 11.5H11.5V8.5L9.5 6.5L7.5 8.5V11.5H8.5V9.5H10.5V11.5Z" fill="#1F2428"/>
<path d="M7.5 8.5V11.5H8.5V9.5H10.5V11.5H11.5V8.5M7.5 8.5L9.5 6.5L11.5 8.5M7.5 8.5L6.5 9.5V10M11.5 8.5L12.5 9.5V10" stroke="#1F2428"/>
</svg>
